<?xml version="1.0" standalone="no"?>
<!DOCTYPE svg PUBLIC "-//W3C//DTD SVG 20010904//EN"
 "http://www.w3.org/TR/2001/REC-SVG-20010904/DTD/svg10.dtd">
<svg version="1.0" xmlns="http://www.w3.org/2000/svg"
 width="512.000000pt" height="512.000000pt" viewBox="0 0 512.000000 512.000000"
 preserveAspectRatio="xMidYMid meet">
<metadata>
Created by potrace 1.14, written by Peter Selinger 2001-2017
</metadata>
<g transform="translate(0.000000,512.000000) scale(0.100000,-0.100000)"
fill="#000000" stroke="none">
<path d="M2685 5059 c-118 -44 -172 -166 -121 -276 23 -49 60 -87 97 -98 10
-4 19 -11 19 -17 0 -19 -72 -212 -84 -224 -6 -7 -64 -14 -131 -18 -135 -8
-148 -9 -260 -31 -91 -17 -77 -25 -152 85 -21 30 -69 100 -107 154 -51 73 -66
101 -56 104 8 3 32 22 52 43 98 102 29 269 -112 269 -55 0 -375 -123 -413
-159 -79 -72 -76 -183 7 -246 45 -35 101 -42 162 -21 26 9 48 15 50 13 1 -1
11 -67 23 -147 12 -80 23 -155 25 -165 2 -11 6 -41 10 -67 l7 -46 -88 -57
c-119 -78 -203 -144 -296 -234 -43 -42 -84 -79 -90 -83 -7 -4 -73 20 -147 52
-109 47 -134 62 -132 77 2 10 4 41 5 69 1 87 -59 147 -149 148 -79 1 -112 -28
-246 -222 -31 -44 -38 -63 -38 -102 0 -136 162 -206 256 -110 16 16 32 30 35
30 7 0 199 -226 199 -236 0 -4 -27 -61 -59 -128 -74 -151 -116 -274 -150 -441
l-26 -129 -200 -48 c-110 -26 -206 -47 -212 -47 -7 -1 -13 9 -13 21 0 12 -11
40 -25 64 -70 119 -248 107 -306 -20 -16 -35 -19 -67 -19 -224 0 -186 7 -231
43 -267 110 -110 292 -44 305 110 4 45 8 55 21 51 9 -3 97 -23 196 -46 99 -22
187 -43 197 -46 11 -3 20 -25 28 -72 28 -168 112 -420 176 -529 39 -67 42 -59
-89 -207 -34 -39 -80 -90 -103 -115 l-41 -45 -27 22 c-41 32 -91 45 -143 37
-35 -5 -55 -16 -88 -50 -52 -51 -65 -105 -42 -171 18 -53 119 -197 161 -229
123 -94 301 23 267 177 -6 23 -9 43 -8 44 16 11 356 144 367 144 8 -1 53 -37
99 -81 103 -98 224 -190 344 -261 49 -29 92 -58 94 -65 4 -11 0 -56 -22 -248
-2 -16 -6 -61 -10 -100 -10 -106 -8 -103 -64 -97 -196 19 -300 -222 -148 -344
42 -33 366 -153 417 -154 19 0 49 9 67 20 48 29 63 65 78 188 8 61 -40 149
-100 180 l-33 17 114 180 c133 209 140 219 161 211 9 -4 75 -14 147 -22 163
-20 352 -13 526 17 69 12 135 23 146 23 17 1 49 -37 143 -167 66 -92 121 -171
121 -175 0 -4 -15 -17 -34 -29 -80 -52 -92 -168 -24 -240 65 -68 108 -65 313
17 201 80 219 91 246 146 43 89 4 187 -86 217 -48 17 -78 15 -137 -8 -29 -11
-38 -12 -38 -2 0 6 -7 48 -14 92 -8 44 -17 99 -21 121 -3 23 -12 77 -19 120
-8 43 -12 83 -10 89 3 5 29 25 59 43 93 56 206 145 300 235 85 81 117 99 141
79 5 -5 45 -24 89 -43 159 -67 149 -59 146 -123 -5 -103 66 -183 171 -193 89
-8 157 37 231 151 62 97 42 205 -51 270 -56 40 -135 43 -201 8 -24 -13 -44
-22 -45 -20 -3 5 -160 192 -173 206 -18 19 -18 19 35 123 48 94 74 153 107
242 10 26 23 48 29 48 14 2 82 5 272 14 l152 6 0 -40 c2 -132 146 -207 252
-131 45 32 56 61 91 236 39 194 42 261 13 301 -54 73 -140 94 -215 51 -38 -21
-69 -70 -86 -135 -8 -32 -8 -32 -38 -18 -16 8 -104 46 -195 85 -91 40 -167 73
-168 75 -2 2 -5 61 -7 132 -4 162 -17 264 -50 406 -8 34 -15 65 -15 69 0 9
206 148 219 148 5 0 16 -9 23 -19 47 -67 168 -84 245 -34 98 63 111 156 44
325 -57 144 -108 191 -212 190 -108 0 -201 -106 -186 -212 3 -22 2 -42 -1 -44
-4 -2 -34 -7 -67 -10 -33 -4 -67 -9 -75 -11 -51 -13 -110 -14 -120 -3 -6 7
-33 51 -61 98 -41 69 -145 217 -169 240 -3 3 -26 28 -52 57 -52 57 -52 52 -8
148 53 113 102 220 121 262 l18 42 40 -20 c51 -24 94 -24 146 1 77 37 109 145
65 217 -20 33 -263 232 -323 266 -84 46 -196 0 -225 -93 -21 -66 -1 -122 64
-183 l35 -32 -63 -50 c-35 -27 -65 -52 -68 -55 -21 -24 -201 -160 -210 -160
-7 0 -63 24 -124 54 -113 55 -269 113 -363 135 -63 15 -71 24 -77 87 -3 27 -8
81 -12 121 l-7 72 34 15 c52 23 79 51 99 103 49 133 -25 250 -175 278 -65 12
-162 14 -190 4z"/>
</g>
</svg>
